<svg xmlns="http://www.w3.org/2000/svg" xmlns:xlink="http://www.w3.org/1999/xlink" width="76" height="76" viewBox="0 0 76 76">
  <defs>
    <clipPath id="clip-path">
      <path id="Path_12565" data-name="Path 12565" d="M799.9,1248.11v.222c.053,17.679,13.506,31.138,29.233,30.124a25.752,25.752,0,0,0,8.389-1.986,19.259,19.259,0,0,1-5.6-7.186c-1.484-3.318-1.1-4.991-2.245-17.622-1.706-18.852-3.186-22.068-4.411-24.1a23.418,23.418,0,0,0-7.831-7.776c-10.164,4.491-17.49,15.356-17.532,28.328" transform="translate(-799.896 -1219.784)" fill="none"/>
    </clipPath>
    <clipPath id="clip-path-2">
      <path id="Path_12052" data-name="Path 12052" d="M812.842,1254.32a22.541,22.541,0,0,0,23.18,22.871,22.909,22.909,0,0,0,21.834-23.015,22.642,22.642,0,0,0-21.76-22.831c-.219-.006-.435-.01-.652-.01a22.821,22.821,0,0,0-22.6,22.984" transform="translate(-812.842 -1231.333)" fill="none"/>
    </clipPath>
    <clipPath id="clip-path-3">
      <path id="Path_12062" data-name="Path 12062" d="M836.734,1252.93a2.369,2.369,0,0,1-1.3,1.74,2.452,2.452,0,0,0-.179,4.28,2.367,2.367,0,0,1,1.155,1.84,2.19,2.19,0,0,0,3.753,1.447,2.133,2.133,0,0,1,1.988-.616,2.345,2.345,0,0,0,2.46-3.342,2.514,2.514,0,0,1,.09-2.193,2.337,2.337,0,0,0-2.178-3.522,2.134,2.134,0,0,1-1.927-.772,2.13,2.13,0,0,0-1.651-.8,2.268,2.268,0,0,0-2.206,1.936" transform="translate(-834.083 -1250.992)" fill="none"/>
    </clipPath>
    <clipPath id="clip-path-4">
      <path id="Path_12053" data-name="Path 12053" d="M852.623,1261.14a1.261,1.261,0,0,1-1.259.292c-.95-.388-2.189.888-2.1,2.163a2.287,2.287,0,0,1-.5,1.522c-.88,1.13-.553,2.654.553,2.577a.923.923,0,0,1,.958.635c.411,1.078,1.848.727,2.432-.59a2.141,2.141,0,0,1,1.079-1.125c1.115-.457,1.672-2.177.944-2.914a1.456,1.456,0,0,1-.282-1.327c.2-.953-.277-1.6-.938-1.6a1.424,1.424,0,0,0-.892.364" transform="translate(-848.265 -1260.777)" fill="none"/>
    </clipPath>
    <clipPath id="clip-path-5">
      <path id="Path_12054" data-name="Path 12054" d="M856.908,1256.42a1.445,1.445,0,0,1-.958.987c-1.054.248-1.46,2.018-.688,2.993a2.085,2.085,0,0,1,.384,1.52c-.167,1.429.942,2.457,1.877,1.741a.991.991,0,0,1,1.187-.057c.94.622,2.019-.507,1.828-1.909a2.191,2.191,0,0,1,.353-1.542c.741-1.029.312-2.749-.729-2.914a1.319,1.319,0,0,1-.964-.907,1.244,1.244,0,0,0-1.115-.922,1.319,1.319,0,0,0-1.174,1.009" transform="translate(-854.861 -1255.409)" fill="none"/>
    </clipPath>
    <clipPath id="clip-path-6">
      <path id="Path_12055" data-name="Path 12055" d="M854.853,1244.19a1.4,1.4,0,0,1-.88,1.072c-1.09.36-1.267,2.144-.3,3.014a2.023,2.023,0,0,1,.632,1.45c.027,1.417,1.362,2.3,2.255,1.5a1.126,1.126,0,0,1,1.259-.186c1.092.5,2.08-.72,1.675-2.07a1.985,1.985,0,0,1,.151-1.552c.644-1.09-.062-2.73-1.2-2.777a1.47,1.47,0,0,1-1.162-.787,1.433,1.433,0,0,0-1.212-.789,1.293,1.293,0,0,0-1.222,1.125" transform="translate(-853.042 -1243.064)" fill="none"/>
    </clipPath>
    <clipPath id="clip-path-7">
      <path id="Path_12056" data-name="Path 12056" d="M847.883,1236.75a1.352,1.352,0,0,1-.017,1.29c-.555.83.3,2.32,1.453,2.518a2.029,2.029,0,0,1,1.231.823c.8,1.1,2.2,1.123,2.38.05a.887.887,0,0,1,.769-.774c1.032-.15,1.051-1.6.031-2.466a2.124,2.124,0,0,1-.743-1.3c-.151-1.187-1.543-2.13-2.359-1.6a1.226,1.226,0,0,1-1.241-.038,1.563,1.563,0,0,0-.706-.19c-.761,0-1.21.743-.8,1.683" transform="translate(-847.693 -1235.063)" fill="none"/>
    </clipPath>
    <clipPath id="clip-path-8">
      <path id="Path_12057" data-name="Path 12057" d="M842.357,1274.86a2.012,2.012,0,0,1-1.146.839c-1.213.351-1.776,1.634-.951,2.169a.847.847,0,0,1,.351.977c-.272,1.008.934,1.523,2.037.873a1.848,1.848,0,0,1,1.354-.243c1.034.262,2.323-.7,2.186-1.622a1.323,1.323,0,0,1,.485-1.117c.9-.832.51-1.935-.664-1.871a1.107,1.107,0,0,1-1.046-.456,1.058,1.058,0,0,0-.951-.461,2.009,2.009,0,0,0-1.656.912" transform="translate(-839.87 -1273.948)" fill="none"/>
    </clipPath>
    <clipPath id="clip-path-9">
      <path id="Path_12058" data-name="Path 12058" d="M850.625,1251.29a1.641,1.641,0,0,1-1.459.6,1.956,1.956,0,0,0-1.82,2.757,2.053,2.053,0,0,1-.063,1.713c-.684,1.388.277,2.907,1.621,2.567a1.4,1.4,0,0,1,1.42.439c.9,1.03,2.547.328,2.8-1.181a2.056,2.056,0,0,1,.931-1.426,1.946,1.946,0,0,0,.12-3.27,1.622,1.622,0,0,1-.828-1.326,1.519,1.519,0,0,0-1.477-1.486,1.64,1.64,0,0,0-1.24.613" transform="translate(-847.058 -1250.672)" fill="none"/>
    </clipPath>
    <clipPath id="clip-path-10">
      <path id="Path_12059" data-name="Path 12059" d="M844.329,1240.31a2.09,2.09,0,0,1-1.916.749,2.324,2.324,0,0,0-2.178,3.524,2.512,2.512,0,0,1,.1,2.2,2.331,2.331,0,0,0,2.485,3.321,2.1,2.1,0,0,1,1.977.579,2.152,2.152,0,0,0,3.661-1.486,2.348,2.348,0,0,1,1.106-1.818,2.431,2.431,0,0,0-.187-4.193,2.353,2.353,0,0,1-1.264-1.716,2.262,2.262,0,0,0-2.187-1.934,2.059,2.059,0,0,0-1.6.77" transform="translate(-839.922 -1239.539)" fill="none"/>
    </clipPath>
    <clipPath id="clip-path-11">
      <path id="Path_12060" data-name="Path 12060" d="M840.457,1230.7a1.568,1.568,0,0,1-1.442.589,1.5,1.5,0,0,0-1.271,2.57,1.715,1.715,0,0,1,.381,1.568,2.016,2.016,0,0,0,2.449,2.295,2.038,2.038,0,0,1,1.667.361c1.25.912,2.87.229,2.748-1.152a1.379,1.379,0,0,1,.646-1.325c1.138-.7.714-2.467-.72-2.988a2.135,2.135,0,0,1-1.252-1.191,2.149,2.149,0,0,0-1.963-1.322,1.5,1.5,0,0,0-1.245.6" transform="translate(-837.302 -1230.11)" fill="none"/>
    </clipPath>
    <clipPath id="clip-path-12">
      <path id="Path_12061" data-name="Path 12061" d="M831.845,1273.41a1.7,1.7,0,0,1-1.433.442c-1.4-.182-2.3,1.086-1.522,2.145a1.307,1.307,0,0,1,.16,1.357c-.523,1.083.674,2.308,2.02,2.071a1.952,1.952,0,0,1,1.527.382c1.065.835,2.681.317,2.739-.871a1.306,1.306,0,0,1,.776-1.108,1.384,1.384,0,0,0-.3-2.589,1.693,1.693,0,0,1-1.033-1.072,1.815,1.815,0,0,0-1.769-1.215,1.609,1.609,0,0,0-1.162.458" transform="translate(-828.604 -1272.952)" fill="none"/>
    </clipPath>
    <clipPath id="clip-path-13">
      <path id="Path_12063" data-name="Path 12063" d="M831.73,1240.09a2.189,2.189,0,0,1-1.982.761,2.369,2.369,0,0,0-2.256,3.582,2.517,2.517,0,0,1,.1,2.242,2.38,2.38,0,0,0,2.569,3.377,2.193,2.193,0,0,1,2.043.59,2.233,2.233,0,0,0,3.787-1.512,2.383,2.383,0,0,1,1.145-1.848,2.451,2.451,0,0,0-.192-4.263,2.4,2.4,0,0,1-1.306-1.745,2.325,2.325,0,0,0-2.261-1.967,2.14,2.14,0,0,0-1.647.781" transform="translate(-827.169 -1239.311)" fill="none"/>
    </clipPath>
    <clipPath id="clip-path-14">
      <path id="Path_12064" data-name="Path 12064" d="M829.379,1231.6a1.61,1.61,0,0,1-1.253.92,1.75,1.75,0,0,0-.931,2.961,1.836,1.836,0,0,1,.478,1.56,1.708,1.708,0,0,0,2.409,1.889,1.576,1.576,0,0,1,1.538.027,1.641,1.641,0,0,0,2.391-1.785,1.775,1.775,0,0,1,.474-1.525,1.785,1.785,0,0,0-.9-2.979,1.713,1.713,0,0,1-1.236-.983,1.677,1.677,0,0,0-1.526-1.013,1.579,1.579,0,0,0-1.44.928" transform="translate(-826.691 -1230.674)" fill="none"/>
    </clipPath>
    <clipPath id="clip-path-15">
      <path id="Path_12065" data-name="Path 12065" d="M818.844,1269.26a1.442,1.442,0,0,1-.4,1.4,1.718,1.718,0,0,0,1.082,2.812,1.919,1.919,0,0,1,1.3.954,1.671,1.671,0,0,0,2.957.164,1.408,1.408,0,0,1,1.182-.808h0a1.5,1.5,0,0,0,.747-2.681,1.75,1.75,0,0,1-.551-1.448,1.832,1.832,0,0,0-2.479-1.846,1.7,1.7,0,0,1-1.534-.1,1.812,1.812,0,0,0-.89-.243,1.42,1.42,0,0,0-1.418,1.79" transform="translate(-818.008 -1267.466)" fill="none"/>
    </clipPath>
    <clipPath id="clip-path-16">
      <path id="Path_12066" data-name="Path 12066" d="M813.881,1257.5a1.843,1.843,0,0,1-.944,1.468c-1.29.642-1.283,2.835.014,3.7a2.321,2.321,0,0,1,.955,1.635c.212,1.71,1.957,2.524,2.946,1.384a1.444,1.444,0,0,1,1.517-.466c1.4.4,2.451-1.264,1.789-2.82a2.414,2.414,0,0,1-.008-1.9c.651-1.441-.417-3.291-1.811-3.133a1.7,1.7,0,0,1-1.52-.732,1.726,1.726,0,0,0-1.363-.745,1.659,1.659,0,0,0-1.576,1.61" transform="translate(-811.973 -1255.89)" fill="none"/>
    </clipPath>
    <clipPath id="clip-path-17">
      <path id="Path_12067" data-name="Path 12067" d="M815.541,1244.38a1.539,1.539,0,0,1-1.359.7c-1.247-.123-2.231,1.632-1.662,2.969a2.349,2.349,0,0,1-.031,1.784c-.616,1.482.313,3.008,1.569,2.581a1.2,1.2,0,0,1,1.341.38c.863,1.022,2.4.2,2.609-1.382a2.287,2.287,0,0,1,.851-1.536c1.13-.834,1.165-2.845.057-3.41a1.632,1.632,0,0,1-.8-1.335,1.447,1.447,0,0,0-1.344-1.467,1.549,1.549,0,0,0-1.229.711" transform="translate(-812.293 -1243.671)" fill="none"/>
    </clipPath>
    <clipPath id="clip-path-18">
      <path id="Path_12068" data-name="Path 12068" d="M820.584,1236.21a1.469,1.469,0,0,1-1.13.826,1.557,1.557,0,0,0-.838,2.64,1.612,1.612,0,0,1,.428,1.386,1.526,1.526,0,0,0,2.168,1.67,1.441,1.441,0,0,1,1.388.017,1.481,1.481,0,0,0,2.155-1.6,1.573,1.573,0,0,1,.427-1.361,1.58,1.58,0,0,0-.813-2.65,1.525,1.525,0,0,1-1.114-.871,1.505,1.505,0,0,0-1.366-.894,1.432,1.432,0,0,0-1.305.837" transform="translate(-818.162 -1235.376)" fill="none"/>
    </clipPath>
    <clipPath id="clip-path-19">
      <path id="Path_12069" data-name="Path 12069" d="M827.5,1259.95a2.276,2.276,0,0,1-1.2,1.735,2.539,2.539,0,0,0-.081,4.306,2.5,2.5,0,0,1,1.131,1.867c.215,1.979,2.34,2.865,3.589,1.5a1.906,1.906,0,0,1,1.873-.594c1.7.418,3.038-1.55,2.269-3.331a2.659,2.659,0,0,1,.041-2.208c.834-1.69-.425-3.8-2.139-3.576a2.041,2.041,0,0,1-1.846-.8,2.051,2.051,0,0,0-1.608-.823,2.106,2.106,0,0,0-2.027,1.921" transform="translate(-825.066 -1258.025)" fill="none"/>
    </clipPath>
    <clipPath id="clip-path-20">
      <path id="Path_12070" data-name="Path 12070" d="M844.013,1264.53a2.129,2.129,0,0,1-1.907.031,2.556,2.556,0,0,0-3.449,2.135,2.462,2.462,0,0,1-.981,1.766c-1.489,1.177-1.246,3.163.41,3.354a1.5,1.5,0,0,1,1.324,1.042c.438,1.45,2.622,1.384,3.693-.1a2.8,2.8,0,0,1,1.772-1.118c1.719-.278,2.807-2.269,1.851-3.373a1.654,1.654,0,0,1-.209-1.719,1.555,1.555,0,0,0-1.473-2.258,2.422,2.422,0,0,0-1.032.247" transform="translate(-836.689 -1264.286)" fill="none"/>
    </clipPath>
    <clipPath id="clip-path-21">
      <path id="Path_12071" data-name="Path 12071" d="M849.725,1272.04a1.765,1.765,0,0,1-.711.993c-.891.617-1.011,1.8-.2,2a.706.706,0,0,1,.54.689c.044.884,1.158.963,1.881.138a1.623,1.623,0,0,1,1.037-.568c.909-.072,1.707-1.2,1.353-1.907a1.128,1.128,0,0,1,.1-1.033c.517-.92-.091-1.7-1.028-1.323a.941.941,0,0,1-.971-.079.775.775,0,0,0-.51-.177,1.7,1.7,0,0,0-1.492,1.263" transform="translate(-848.27 -1270.773)" fill="none"/>
    </clipPath>
    <clipPath id="clip-path-22">
      <path id="Path_12072" data-name="Path 12072" d="M823.944,1249.24a1.931,1.931,0,0,1-1.8.438,1.96,1.96,0,0,0-2.238,2.786,2.054,2.054,0,0,1-.072,1.9,2.1,2.1,0,0,0,2.017,3.112,2.057,2.057,0,0,1,1.755.709,1.956,1.956,0,0,0,3.444-.882,1.922,1.922,0,0,1,1.14-1.442,2.037,2.037,0,0,0,.134-3.618,2.131,2.131,0,0,1-1.027-1.606,2.11,2.11,0,0,0-2.076-1.9,1.859,1.859,0,0,0-1.281.5" transform="translate(-819.563 -1248.736)" fill="none"/>
    </clipPath>
  </defs>
  <g id="oncology-ic" transform="translate(-2321 1092)">
    <rect id="Rectangle_5233" data-name="Rectangle 5233" width="76" height="76" transform="translate(2321 -1092)" fill="rgba(255,255,255,0)"/>
    <g id="_2" data-name="2" transform="translate(-6812.932 6220)">
      <g id="Group_15667" data-name="Group 15667" transform="translate(9142 -7305)">
        <circle id="Ellipse_194" data-name="Ellipse 194" cx="31.428" cy="31.428" r="31.428" transform="translate(0.076 0)" fill="#08966a"/>
        <g id="Group_15665" data-name="Group 15665" transform="translate(0 3.986)" clip-path="url(#clip-path)">
          <rect id="Rectangle_4453" data-name="Rectangle 4453" width="49.735" height="64.826" transform="translate(-12.745 2.932) rotate(-13.014)" fill="#52d3ab"/>
        </g>
      </g>
      <g id="Group_15669" data-name="Group 15669" transform="translate(9149.97 -7297.03)">
        <g id="Group_15651" data-name="Group 15651">
          <g id="Group_15668" data-name="Group 15668">
            <g id="Group_15648" data-name="Group 15648" transform="translate(0.821 1.156)">
              <g id="Group_14817" data-name="Group 14817" clip-path="url(#clip-path-2)">
                <rect id="Rectangle_3864" data-name="Rectangle 3864" width="58.674" height="59.391" transform="translate(-15.548 5.968) rotate(-21.046)" fill="#acecd8"/>
              </g>
            </g>
            <g id="Group_15649" data-name="Group 15649" transform="translate(20.899 19.739)">
              <g id="Group_14837" data-name="Group 14837" clip-path="url(#clip-path-3)">
                <rect id="Rectangle_3874" data-name="Rectangle 3874" width="14.777" height="15.215" transform="matrix(0.968, -0.251, 0.251, 0.968, -3.531, 0.792)" fill="#0cbb52"/>
              </g>
            </g>
            <g id="Group_15650" data-name="Group 15650">
              <g id="Group_14820" data-name="Group 14820" transform="translate(34.305 28.988)">
                <g id="Group_14819" data-name="Group 14819" clip-path="url(#clip-path-4)">
                  <rect id="Rectangle_3865" data-name="Rectangle 3865" width="9.497" height="10.255" transform="translate(-2.471 0.542) rotate(-14.519)" fill="#0cbb52"/>
                </g>
              </g>
              <g id="Group_14822" data-name="Group 14822" transform="translate(40.54 23.914)">
                <g id="Group_14821" data-name="Group 14821" clip-path="url(#clip-path-5)">
                  <rect id="Rectangle_3866" data-name="Rectangle 3866" width="9.162" height="10.471" transform="translate(-2.547 0.562) rotate(-14.519)" fill="#0cbb52"/>
                </g>
              </g>
              <g id="Group_14824" data-name="Group 14824" transform="translate(38.82 12.245)">
                <g id="Group_14823" data-name="Group 14823" clip-path="url(#clip-path-6)">
                  <rect id="Rectangle_3867" data-name="Rectangle 3867" width="9.587" height="10.579" transform="matrix(0.968, -0.251, 0.251, 0.968, -2.51, 0.562)" fill="#0cbb52"/>
                </g>
              </g>
              <g id="Group_14826" data-name="Group 14826" transform="translate(33.764 4.682)">
                <g id="Group_14825" data-name="Group 14825" clip-path="url(#clip-path-7)">
                  <rect id="Rectangle_3868" data-name="Rectangle 3868" width="9.143" height="9.36" transform="translate(-2.261 0.179) rotate(-14.518)" fill="#0cbb52"/>
                </g>
              </g>
              <g id="Group_14828" data-name="Group 14828" transform="translate(26.37 41.438)">
                <g id="Group_14827" data-name="Group 14827" clip-path="url(#clip-path-8)">
                  <rect id="Rectangle_3869" data-name="Rectangle 3869" width="9.489" height="8.256" transform="matrix(0.968, -0.251, 0.251, 0.968, -1.993, 0.404)" fill="#0cbb52"/>
                </g>
              </g>
              <g id="Group_14830" data-name="Group 14830" transform="translate(33.164 19.436)">
                <g id="Group_14829" data-name="Group 14829" clip-path="url(#clip-path-9)">
                  <rect id="Rectangle_3870" data-name="Rectangle 3870" width="10.894" height="11.599" transform="matrix(0.968, -0.251, 0.251, 0.968, -2.816, 0.61)" fill="#0cbb52"/>
                </g>
              </g>
              <g id="Group_14832" data-name="Group 14832" transform="translate(26.419 8.913)">
                <g id="Group_14831" data-name="Group 14831" clip-path="url(#clip-path-10)">
                  <rect id="Rectangle_3871" data-name="Rectangle 3871" width="14.579" height="15.044" transform="matrix(0.968, -0.251, 0.251, 0.968, -3.651, 0.784)" fill="#0cbb52"/>
                </g>
              </g>
              <g id="Group_14834" data-name="Group 14834" transform="translate(23.942)">
                <g id="Group_14833" data-name="Group 14833" clip-path="url(#clip-path-11)">
                  <rect id="Rectangle_3872" data-name="Rectangle 3872" width="11.921" height="11.117" transform="translate(-2.698 0.558) rotate(-14.519)" fill="#0cbb52"/>
                </g>
              </g>
              <g id="Group_14836" data-name="Group 14836" transform="translate(15.721 40.497)">
                <g id="Group_14835" data-name="Group 14835" clip-path="url(#clip-path-12)">
                  <rect id="Rectangle_3873" data-name="Rectangle 3873" width="10.798" height="9.741" transform="translate(-2.356 0.484) rotate(-14.519)" fill="#0cbb52"/>
                </g>
              </g>
              <g id="Group_14840" data-name="Group 14840" transform="translate(14.364 8.697)">
                <g id="Group_14839" data-name="Group 14839" clip-path="url(#clip-path-13)">
                  <rect id="Rectangle_3875" data-name="Rectangle 3875" width="15.019" height="15.348" transform="matrix(0.968, -0.251, 0.251, 0.968, -3.722, 0.797)" fill="#0cbb52"/>
                </g>
              </g>
              <g id="Group_14842" data-name="Group 14842" transform="translate(13.912 0.533)">
                <g id="Group_14841" data-name="Group 14841" clip-path="url(#clip-path-14)">
                  <rect id="Rectangle_3876" data-name="Rectangle 3876" width="11.207" height="11.011" transform="translate(-2.666 0.562) rotate(-14.516)" fill="#0cbb52"/>
                </g>
              </g>
              <g id="Group_14844" data-name="Group 14844" transform="translate(5.704 35.311)">
                <g id="Group_14843" data-name="Group 14843" clip-path="url(#clip-path-15)">
                  <rect id="Rectangle_3877" data-name="Rectangle 3877" width="11.056" height="10.526" transform="matrix(0.968, -0.251, 0.251, 0.968, -2.553, 0.333)" fill="#0cbb52"/>
                </g>
              </g>
              <g id="Group_14846" data-name="Group 14846" transform="translate(0 24.369)">
                <g id="Group_14845" data-name="Group 14845" clip-path="url(#clip-path-16)">
                  <rect id="Rectangle_3878" data-name="Rectangle 3878" width="11.623" height="12.891" transform="matrix(0.968, -0.251, 0.251, 0.968, -2.982, 0.687)" fill="#0cbb52"/>
                </g>
              </g>
              <g id="Group_14848" data-name="Group 14848" transform="translate(0.303 12.819)">
                <g id="Group_14847" data-name="Group 14847" clip-path="url(#clip-path-17)">
                  <rect id="Rectangle_3879" data-name="Rectangle 3879" width="10.436" height="11.87" transform="translate(-2.885 0.639) rotate(-14.519)" fill="#0cbb52"/>
                </g>
              </g>
              <g id="Group_14850" data-name="Group 14850" transform="translate(5.85 4.978)">
                <g id="Group_14849" data-name="Group 14849" clip-path="url(#clip-path-18)">
                  <rect id="Rectangle_3880" data-name="Rectangle 3880" width="10.071" height="9.822" transform="matrix(0.968, -0.251, 0.251, 0.968, -2.376, 0.503)" fill="#0cbb52"/>
                </g>
              </g>
              <g id="Group_14852" data-name="Group 14852" transform="translate(12.376 26.387)">
                <g id="Group_14851" data-name="Group 14851" clip-path="url(#clip-path-19)">
                  <rect id="Rectangle_3881" data-name="Rectangle 3881" width="14.131" height="15.124" transform="matrix(0.968, -0.251, 0.251, 0.968, -3.502, 0.798)" fill="#0cbb52"/>
                </g>
              </g>
              <g id="Group_14854" data-name="Group 14854" transform="translate(23.363 32.305)">
                <g id="Group_14853" data-name="Group 14853" clip-path="url(#clip-path-20)">
                  <rect id="Rectangle_3882" data-name="Rectangle 3882" width="13.757" height="13.028" transform="matrix(0.968, -0.251, 0.251, 0.968, -3.046, 0.202)" fill="#0cbb52"/>
                </g>
              </g>
              <g id="Group_14856" data-name="Group 14856" transform="translate(34.31 38.437)">
                <g id="Group_14855" data-name="Group 14855" clip-path="url(#clip-path-21)">
                  <rect id="Rectangle_3883" data-name="Rectangle 3883" width="7.554" height="7.408" transform="translate(-1.731 0.256) rotate(-14.516)" fill="#0cbb52"/>
                </g>
              </g>
              <g id="Group_14858" data-name="Group 14858" transform="translate(7.175 17.606)">
                <g id="Group_14857" data-name="Group 14857" clip-path="url(#clip-path-22)">
                  <rect id="Rectangle_3884" data-name="Rectangle 3884" width="13.114" height="13.089" transform="matrix(0.968, -0.251, 0.251, 0.968, -3.168, 0.673)" fill="#0cbb52"/>
                </g>
              </g>
            </g>
          </g>
        </g>
      </g>
    </g>
  </g>
</svg>
